# 3ds Max Wavefront OBJ Exporter v0.97b - (c)2007 guruware
# File Created: 12.10.2019 23:27:17

mtllib tree3.mtl

#
# object Cylinder004
#

v  1.3135 1.5954 6.6422
v  -6.6893 1.5954 4.0218
v  -6.7097 1.5954 -4.8994
v  1.5751 1.5954 -6.4072
v  6.2656 1.5954 -0.1795
v  0.3865 16.8395 -4.2049
v  7.0597 19.6755 -0.2976
v  -6.8892 17.9228 -3.5689
v  -6.6906 21.4282 4.6000
v  1.3127 22.5114 6.9842
v  -1.5394 63.0112 5.3823
v  0.8804 62.0472 3.4656
v  -0.2860 61.8620 0.5651
v  -3.4265 62.7115 0.6892
v  -4.2012 63.4218 3.6664
v  0.1640 35.0757 -3.8951
v  5.4326 34.7184 -0.1759
v  -5.4109 34.9392 -2.8036
v  -5.4109 34.4975 3.5872
v  0.8263 34.3610 5.5621
v  1.4976 44.6549 -1.5035
v  5.3747 44.8284 2.5415
v  -3.6429 45.4508 0.8004
v  -2.9427 46.1163 6.2693
v  2.6305 45.7317 7.3453
v  -1.3413 53.5994 2.8814
v  15.8213 29.8103 26.3250
v  21.5442 29.8103 -15.0186
v  -1.3413 22.0397 2.8814
v  -18.5039 29.8103 -20.5622
v  -24.2268 29.8103 20.7814
v  -1.8335 66.0269 0.6227
v  15.5793 43.9239 20.6357
v  15.5793 40.7387 -15.1750
v  -1.8335 34.5913 3.4188
v  -19.2462 40.7387 -15.1750
v  -19.2462 43.9239 20.6357
v  1.2997 73.8605 0.9297
v  13.4647 52.7937 18.2225
v  13.0717 50.0672 -12.7208
v  -2.5789 46.9515 3.3458
v  -16.7125 54.3602 -12.7208
v  -16.3195 57.0867 18.2225
v  0.9218 83.1862 2.7845
v  13.9913 63.5308 14.6812
v  11.3513 63.5218 -11.5397
v  -0.8064 57.9724 2.9045
v  -14.7531 64.8302 -8.9313
v  -12.1132 64.8391 17.2895
# 49 vertices

vn 0.2476 -0.6013 0.7597
vn -0.6499 -0.6023 0.4635
vn -0.6166 -0.5702 -0.5429
vn 0.3101 -0.5447 -0.7792
vn 0.7916 -0.6110 -0.0051
vn 0.2016 0.0997 -0.9744
vn 0.9816 0.0299 -0.1885
vn -0.7515 0.0589 -0.6571
vn -0.7988 0.0560 0.5990
vn 0.3059 0.0631 0.9500
vn 0.0613 0.6863 0.7248
vn 0.7853 0.5955 0.1694
vn 0.4829 0.5424 -0.6875
vn -0.4253 0.5978 -0.6795
vn -0.6785 0.7093 0.1909
vn 0.1869 0.1181 -0.9753
vn 0.9776 0.0862 -0.1921
vn -0.7422 0.2059 -0.6377
vn -0.8311 0.0940 0.5482
vn 0.2698 -0.0296 0.9625
vn 0.2486 0.1748 -0.9527
vn 0.9901 0.1187 -0.0743
vn -0.8772 0.1505 -0.4560
vn -0.6712 0.0118 0.7412
vn 0.4566 0.0148 0.8896
vn 0.0000 1.0000 -0.0000
vn 0.5929 -0.1578 0.7897
vn 0.7851 -0.1578 -0.5989
vn 0.0000 -1.0000 -0.0000
vn -0.5929 -0.1578 -0.7897
vn -0.7851 -0.1578 0.5989
vn 0.0000 0.9961 -0.0886
vn 0.6940 -0.1089 0.7117
vn 0.6940 -0.2328 -0.6813
vn 0.0000 -0.9961 0.0886
vn -0.6940 -0.2328 -0.6813
vn -0.6940 -0.1089 0.7117
vn 0.1421 0.9859 -0.0886
vn 0.6714 -0.2069 0.7117
vn 0.6537 -0.3295 -0.6813
vn -0.1421 -0.9859 0.0887
vn -0.7201 -0.1315 -0.6813
vn -0.7025 -0.0088 0.7117
vn 0.0612 0.9981 -0.0050
vn 0.7503 -0.2154 0.6250
vn 0.6110 -0.2152 -0.7618
vn -0.0524 -0.9986 0.0052
vn -0.7708 -0.1397 -0.6216
vn -0.6322 -0.1401 0.7620
# 49 vertex normals

vt 0.5500 0.0000 1.0000
vt 0.3500 0.0000 1.0000
vt 0.1500 0.0000 1.0000
vt -0.0500 0.0000 1.0000
vt 0.5101 0.0000 -0.3820
vt 0.7500 0.0000 1.0000
vt 0.9500 0.0000 1.0000
vt 0.9500 1.0000 1.0000
vt 0.7500 1.0000 1.0000
vt 0.1500 1.0000 1.0000
vt -0.0500 1.0000 1.0000
vt 0.3500 1.0000 1.0000
vt 0.5500 1.0000 1.0000
vt 0.5281 1.0000 -0.3820
vt 0.0674 1.0000 -1.2361
vt 0.0000 0.5000 0.0000
vt -0.5000 0.0000 0.5000
vt 0.5000 0.0000 0.5000
vt 0.0000 0.5000 0.5000
vt -0.5000 0.0000 0.0000
vt 0.0000 -0.5000 0.5000
vt 0.5000 0.0000 -0.5000
vt -0.5000 0.0000 -0.5000
vt 0.0000 -0.5000 -0.5000
vt 0.0000 0.5000 -0.5000
vt 0.5000 0.0000 0.0000
vt 0.0000 -0.5000 0.0000
# 27 texture coords

o Cylinder004
g Cylinder004
usemtl 07___Default
s 1
f 1/1/1 2/2/2 3/3/3 4/4/4 5/5/5 
s 8
f 5/6/5 4/7/4 6/8/6 7/9/7 
f 4/4/4 3/3/3 8/10/8 6/11/6 
f 3/3/3 2/2/2 9/12/9 8/10/8 
f 2/2/2 1/1/1 10/13/10 9/12/9 
f 1/1/1 5/6/5 7/9/7 10/13/10 
s 1
f 11/13/11 12/9/12 13/8/13 14/14/14 15/15/15 
s off
f 7/9/7 6/8/6 16/8/16 17/9/17 
f 6/8/6 8/14/8 18/14/18 16/8/16 
f 8/14/8 9/15/9 19/15/19 18/14/18 
f 9/15/9 10/13/10 20/13/20 19/15/19 
f 10/13/10 7/9/7 17/9/17 20/13/20 
f 17/9/17 16/8/16 21/8/21 22/9/22 
f 16/8/16 18/14/18 23/14/23 21/8/21 
f 18/14/18 19/15/19 24/15/24 23/14/23 
f 19/15/19 20/13/20 25/13/25 24/15/24 
f 20/13/20 17/9/17 22/9/22 25/13/25 
f 22/9/22 21/8/21 13/8/13 12/9/12 
f 21/8/21 23/14/23 14/14/14 13/8/13 
f 23/14/23 24/15/24 15/15/15 14/14/14 
f 24/15/24 25/13/25 11/13/11 15/15/15 
f 25/13/25 22/9/22 12/9/12 11/13/11 
usemtl 10___Default
f 26/16/26 27/17/27 28/18/28 
f 28/19/28 29/20/29 30/21/30 
f 30/22/30 31/23/31 26/16/26 
f 31/24/31 29/20/29 27/25/27 
f 28/19/28 30/21/30 26/26/26 
f 31/24/31 27/25/27 26/26/26 
f 27/17/27 29/27/29 28/18/28 
f 31/23/31 30/22/30 29/27/29 
usemtl 09___Default
f 32/16/32 33/17/33 34/18/34 
f 34/19/34 35/20/35 36/21/36 
f 36/22/36 37/23/37 32/16/32 
f 37/24/37 35/20/35 33/25/33 
f 34/19/34 36/21/36 32/26/32 
f 37/24/37 33/25/33 32/26/32 
f 33/17/33 35/27/35 34/18/34 
f 37/23/37 36/22/36 35/27/35 
usemtl 12___Default
f 38/16/38 39/17/39 40/18/40 
f 40/19/40 41/20/41 42/21/42 
f 42/22/42 43/23/43 38/16/38 
f 43/24/43 41/20/41 39/25/39 
f 40/19/40 42/21/42 38/26/38 
f 43/24/43 39/25/39 38/26/38 
f 39/17/39 41/27/41 40/18/40 
f 43/23/43 42/22/42 41/27/41 
usemtl aiStandardSurface41SG
f 44/16/44 45/17/45 46/18/46 
f 46/19/46 47/20/47 48/21/48 
f 48/22/48 49/23/49 44/16/44 
f 49/24/49 47/20/47 45/25/45 
f 46/19/46 48/21/48 44/26/44 
f 49/24/49 45/25/45 44/26/44 
f 45/17/45 47/27/47 46/18/46 
f 49/23/49 48/22/48 47/27/47 
# 22 polygons - 32 triangles

